# xmcd CD database file
#
# Track frame offsets:
#	150
#	41027
#	64183
#	84021
#	101772
#	120077
#	134534
#	166365
#	201873
#	238147
#	252230
#	273465
#	297628
#	313668
#	332589
#
# Disc length: 4696 seconds
#
# Revision: 0
# Processed by: cddbd v1.5.2PL0 Copyright (c) Steve Scherf et al.
# Submitted via: CDex 1.70beta2
#
DISCID=dc12560f
DTITLE=Buddy de Franco - Four Classic Albums Plus - CD2 - Mr. Clarinet - Jazz Tones - Pretty Moods
DYEAR=1953
DGENRE=Jazz
TTITLE0=Buddy's Blues
TTITLE1=Ferdinando
TTITLE2=It Could Happen To You
TTITLE3=Autumn In New York
TTITLE4=Left Field
TTITLE5=Show Eyes
TTITLE6=But Not For Me
TTITLE7=Bass On Balls
TTITLE8=The Things We Did Last Summer
TTITLE9=Jack The Field Stalker
TTITLE10=Tenderly
TTITLE11=Lover Man
TTITLE12=Deep Purple
TTITLE13=Yesterdays
TTITLE14=If I Should Lose You
EXTD=YEAR: 1953
EXTT0=
EXTT1=
EXTT2=
EXTT3=
EXTT4=
EXTT5=
EXTT6=
EXTT7=
EXTT8=
EXTT9=
EXTT10=
EXTT11=
EXTT12=
EXTT13=
EXTT14=
PLAYORDER=
